<?xml version="1.0" encoding="utf-8"?>
<!-- Generator: Adobe Illustrator 23.0.5, SVG Export Plug-In . SVG Version: 6.00 Build 0)  -->
<svg version="1.1" id="Capa_1" xmlns="http://www.w3.org/2000/svg" xmlns:xlink="http://www.w3.org/1999/xlink" x="0px" y="0px"
	 viewBox="0 0 100 100" style="enable-background:new 0 0 100 100;" xml:space="preserve">
<style type="text/css">
	.st0{fill:#FFFFFF;}
</style>
<g>
	<path class="st0" d="M48.4,32c-9.6-4.2-19.6-3.7-26.9,4.4c-5.1,5.7-12.2,5-12.2,9.3c0,3.4,5.8,3.2,8.9,3.7
		c1.7,0.3,5.2,2.2,10.5,3.7c0.1,1.1,0.1,3.3-1,5.4c-1.6,3-7.8,3.7-7.8,3.7s6.1,2,6.1,7.3c0,3.7,0,5.8,0,12.7c0,6.9,5.1,5.3,5.2-1
		c0.1-6.3,2.2-22.3,2.8-26.8c0.6,0.1,1.2,0.2,1.9,0.3c1.9,4.1,9,17.2,25.2,26.3c19.4,10.8,26.5,3.4,28.1-2.3
		c1.6-5.8-0.6-15.2-9.8-12.6c-8.1,2.3-4.5,11.2-4.5,11.2s0.4-8,7-7.3c6.7,0.7,3.9,14.6-6.3,11.9c-10.2-2.7-19-6.7-28.5-18.4
		C44,60,42.4,57,41.6,55.2c1.4,0,2.8,0,4.3-0.1c15-0.9,20.4-6.7,20.4-6.7h27.6v-6.9H66.1C66.1,41.7,58,36.1,48.4,32z M14.1,45.2
		c0-1.6,2-1.3,4.1-2.5c3.6-2.1,7.2-6.7,10.7-8.6c0.3-0.2,0.7-0.3,1.1-0.5c-2.4,2-4,5.1-4,8.5c0,3.3,1.5,6.3,3.8,8.3
		c-3.7-0.9-6.4-2-8.1-2.7C18,46.3,14.1,47.1,14.1,45.2z M43.7,52.1c-0.6,0-1.2,0-1.8-0.1c3.7-1.8,6.2-5.6,6.2-9.9
		c0-3.3-1.4-6.2-3.7-8.3c0.2,0.1,0.4,0.1,0.6,0.2c12.7,4.6,18.5,11.7,18.5,11.7S55,52.2,43.7,52.1z"/>
	<path class="st0" d="M65.2,20.8c-6.9-2.6-19-8.2-30.2-7.5c-11.2,0.7-23,6.1-26.6,8.4c-2.9,1.8-3.3,5,0.9,4.1
		c4.3-0.9,14.2-7.2,26.3-7.5c12-0.3,20.3,5.2,28.8,7.5c7.4,2,25.2,2.2,29.4,2.3v-4.1C89.4,23.6,69.8,22.5,65.2,20.8z"/>
</g>
</svg>
